{"accessors":[{"bufferView":0,"byteOffset":0,"componentType":5126,"count":9,"max":[0,0.400000005960464,0.400000005960464],"min":[0,-0.400000005960464,-0.400000005960464],"name":"circle_loop","type":"VEC3"},{"bufferView":1,"byteOffset":0,"componentType":5126,"count":9,"max":[0.400000005960464,0,0.400000005960464],"min":[-0.400000005960464,0,-0.400000005960464],"name":"circle_loop","type":"VEC3"},{"bufferView":2,"byteOffset":0,"componentType":5126,"count":9,"max":[0.400000005960464,0.400000005960464,0],"min":[-0.400000005960464,-0.400000005960464,0],"name":"circle_loop","type":"VEC3"},{"bufferView":3,"byteOffset":0,"componentType":5126,"count":9,"max":[0,0.400000005960464,0.400000005960464],"min":[0,-0.400000005960464,-0.400000005960464],"name":"circle_loop","type":"VEC3"},{"bufferView":4,"byteOffset":0,"componentType":5126,"count":9,"max":[0.400000005960464,0,0.400000005960464],"min":[-0.400000005960464,0,-0.400000005960464],"name":"circle_loop","type":"VEC3"},{"bufferView":5,"byteOffset":0,"componentType":5126,"count":9,"max":[0.400000005960464,0.400000005960464,0],"min":[-0.400000005960464,-0.400000005960464,0],"name":"circle_loop","type":"VEC3"},{"bufferView":6,"byteOffset":0,"componentType":5126,"count":33048,"max":[45.8058090209961,50.6164016723633,37.0013999938965],"min":[-8.1373348236084,-8.61640357971191,-7.00139999389648],"name":"buf_scattered_lines","type":"VEC3"},{"bufferView":7,"byteOffset":0,"componentType":5126,"count":2144,"max":[50.137336730957,6,37.0013999938965],"min":[-1.07106781005859,-3.80580711364746,-7.00139999389648],"name":"buf_red_scattered_lines","type":"VEC3"}],"asset":{"version":"2.0"},"bufferViews":[{"buffer":0,"byteLength":108,"byteOffset":0,"name":"circle_loop","target":34962},{"buffer":1,"byteLength":108,"byteOffset":0,"name":"circle_loop","target":34962},{"buffer":2,"byteLength":108,"byteOffset":0,"name":"circle_loop","target":34962},{"buffer":3,"byteLength":108,"byteOffset":0,"name":"circle_loop","target":34962},{"buffer":4,"byteLength":108,"byteOffset":0,"name":"circle_loop","target":34962},{"buffer":5,"byteLength":108,"byteOffset":0,"name":"circle_loop","target":34962},{"buffer":6,"byteLength":396576,"byteOffset":0,"name":"buf_scattered_lines","target":34962},{"buffer":7,"byteLength":25728,"byteOffset":0,"name":"buf_red_scattered_lines","target":34962}],"buffers":[{"byteLength":108,"name":"circle_loop","uri":"data:application/octet-stream;base64,"},{"byteLength":108,"name":"circle_loop","uri":"data:application/octet-stream;base64,"},{"byteLength":108,"name":"circle_loop","uri":"data:application/octet-stream;base64,"},{"byteLength":108,"name":"circle_loop","uri":"data:application/octet-stream;base64,"},{"byteLength":108,"name":"circle_loop","uri":"data:application/octet-stream;base64,"},{"byteLength":108,"name":"circle_loop","uri":"data:application/octet-stream;base64,"},{"byteLength":396576,"name":"buf_scattered_lines","uri":"data:application/octet-stream;base64,"},{"byteLength":25728,"name":"buf_red_scattered_lines","uri":"data:application/octet-stream;base64,"}],"materials":[{"doubleSided":true,"pbrMetallicRoughness":{"baseColorFactor":[0,0,0,1],"metallicFactor":1,"roughnessFactor":1}},{"doubleSided":true,"pbrMetallicRoughness":{"baseColorFactor":[1,0.5,0.5,1],"metallicFactor":1,"roughnessFactor":1}},{"doubleSided":true,"pbrMetallicRoughness":{"baseColorFactor":[0,0,0,1],"metallicFactor":1,"roughnessFactor":1}},{"doubleSided":true,"pbrMetallicRoughness":{"baseColorFactor":[1,0,0,1],"metallicFactor":1,"roughnessFactor":1}}],"meshes":[{"primitives":[{"attributes":{"POSITION":0},"material":0,"mode":6},{"attributes":{"POSITION":1},"material":0,"mode":6},{"attributes":{"POSITION":2},"material":0,"mode":6}]},{"primitives":[{"attributes":{"POSITION":3},"material":1,"mode":6},{"attributes":{"POSITION":4},"material":1,"mode":6},{"attributes":{"POSITION":5},"material":1,"mode":6}]},{"primitives":[{"attributes":{"POSITION":6},"material":2,"mode":1}]},{"primitives":[{"attributes":{"POSITION":7},"material":3,"mode":1}]}],"nodes":[{"mesh":0,"translation":[0,12,0]},{"mesh":0,"translation":[0,24,0]},{"mesh":0,"translation":[0,36,0]},{"mesh":1,"translation":[6,6,0]},{"mesh":0,"translation":[6,18,0]},{"mesh":0,"translation":[6,30,0]},{"mesh":0,"translation":[12,12,0]},{"mesh":0,"translation":[12,24,0]},{"mesh":0,"translation":[12,36,0]},{"mesh":1,"translation":[18,6,0]},{"mesh":0,"translation":[18,18,0]},{"mesh":0,"translation":[18,30,0]},{"mesh":0,"translation":[24,12,0]},{"mesh":0,"translation":[24,24,0]},{"mesh":0,"translation":[24,36,0]},{"mesh":1,"translation":[30,6,0]},{"mesh":0,"translation":[30,18,0]},{"mesh":0,"translation":[30,30,0]},{"mesh":0,"translation":[36,12,0]},{"mesh":0,"translation":[36,24,0]},{"mesh":0,"translation":[36,36,0]},{"mesh":1,"translation":[42,6,0]},{"mesh":0,"translation":[42,18,0]},{"mesh":0,"translation":[42,30,0]},{"mesh":0,"translation":[6,0,3]},{"mesh":0,"translation":[18,0,3]},{"mesh":0,"translation":[30,0,3]},{"mesh":1,"translation":[6,6,3]},{"mesh":0,"translation":[12,6,3]},{"mesh":1,"translation":[18,6,3]},{"mesh":0,"translation":[24,6,3]},{"mesh":1,"translation":[30,6,3]},{"mesh":0,"translation":[36,6,3]},{"mesh":1,"translation":[42,6,3]},{"mesh":0,"translation":[0,12,3]},{"mesh":0,"translation":[6,12,3]},{"mesh":0,"translation":[12,12,3]},{"mesh":0,"translation":[18,12,3]},{"mesh":0,"translation":[24,12,3]},{"mesh":0,"translation":[30,12,3]},{"mesh":0,"translation":[36,12,3]},{"mesh":0,"translation":[6,18,3]},{"mesh":0,"translation":[12,18,3]},{"mesh":0,"translation":[18,18,3]},{"mesh":0,"translation":[24,18,3]},{"mesh":0,"translation":[30,18,3]},{"mesh":0,"translation":[36,18,3]},{"mesh":0,"translation":[42,18,3]},{"mesh":0,"translation":[0,24,3]},{"mesh":0,"translation":[6,24,3]},{"mesh":0,"translation":[12,24,3]},{"mesh":0,"translation":[18,24,3]},{"mesh":0,"translation":[24,24,3]},{"mesh":0,"translation":[30,24,3]},{"mesh":0,"translation":[36,24,3]},{"mesh":0,"translation":[6,30,3]},{"mesh":0,"translation":[12,30,3]},{"mesh":0,"translation":[18,30,3]},{"mesh":0,"translation":[24,30,3]},{"mesh":0,"translation":[30,30,3]},{"mesh":0,"translation":[36,30,3]},{"mesh":0,"translation":[42,30,3]},{"mesh":0,"translation":[0,36,3]},{"mesh":0,"translation":[6,36,3]},{"mesh":0,"translation":[12,36,3]},{"mesh":0,"translation":[18,36,3]},{"mesh":0,"translation":[24,36,3]},{"mesh":0,"translation":[30,36,3]},{"mesh":0,"translation":[36,36,3]},{"mesh":0,"translation":[12,42,3]},{"mesh":0,"translation":[24,42,3]},{"mesh":0,"translation":[36,42,3]},{"mesh":0,"translation":[6,0,6]},{"mesh":0,"translation":[18,0,6]},{"mesh":0,"translation":[30,0,6]},{"mesh":1,"translation":[6,6,6]},{"mesh":0,"translation":[12,6,6]},{"mesh":1,"translation":[18,6,6]},{"mesh":0,"translation":[24,6,6]},{"mesh":1,"translation":[30,6,6]},{"mesh":0,"translation":[36,6,6]},{"mesh":1,"translation":[42,6,6]},{"mesh":0,"translation":[0,12,6]},{"mesh":0,"translation":[6,12,6]},{"mesh":0,"translation":[12,12,6]},{"mesh":0,"translation":[18,12,6]},{"mesh":0,"translation":[24,12,6]},{"mesh":0,"translation":[30,12,6]},{"mesh":0,"translation":[36,12,6]},{"mesh":0,"translation":[6,18,6]},{"mesh":0,"translation":[12,18,6]},{"mesh":0,"translation":[18,18,6]},{"mesh":0,"translation":[24,18,6]},{"mesh":0,"translation":[30,18,6]},{"mesh":0,"translation":[36,18,6]},{"mesh":0,"translation":[42,18,6]},{"mesh":0,"translation":[0,24,6]},{"mesh":0,"translation":[6,24,6]},{"mesh":0,"translation":[12,24,6]},{"mesh":0,"translation":[18,24,6]},{"mesh":0,"translation":[24,24,6]},{"mesh":0,"translation":[30,24,6]},{"mesh":0,"translation":[36,24,6]},{"mesh":0,"translation":[6,30,6]},{"mesh":0,"translation":[12,30,6]},{"mesh":0,"translation":[18,30,6]},{"mesh":0,"translation":[24,30,6]},{"mesh":0,"translation":[30,30,6]},{"mesh":0,"translation":[36,30,6]},{"mesh":0,"translation":[42,30,6]},{"mesh":0,"translation":[0,36,6]},{"mesh":0,"translation":[6,36,6]},{"mesh":0,"translation":[12,36,6]},{"mesh":0,"translation":[18,36,6]},{"mesh":0,"translation":[24,36,6]},{"mesh":0,"translation":[30,36,6]},{"mesh":0,"translation":[36,36,6]},{"mesh":0,"translation":[12,42,6]},{"mesh":0,"translation":[24,42,6]},{"mesh":0,"translation":[36,42,6]},{"mesh":0,"translation":[6,0,9]},{"mesh":0,"translation":[18,0,9]},{"mesh":0,"translation":[30,0,9]},{"mesh":1,"translation":[6,6,9]},{"mesh":0,"translation":[12,6,9]},{"mesh":1,"translation":[18,6,9]},{"mesh":0,"translation":[24,6,9]},{"mesh":1,"translation":[30,6,9]},{"mesh":0,"translation":[36,6,9]},{"mesh":1,"translation":[42,6,9]},{"mesh":0,"translation":[0,12,9]},{"mesh":0,"translation":[6,12,9]},{"mesh":0,"translation":[12,12,9]},{"mesh":0,"translation":[18,12,9]},{"mesh":0,"translation":[24,12,9]},{"mesh":0,"translation":[30,12,9]},{"mesh":0,"translation":[36,12,9]},{"mesh":0,"translation":[6,18,9]},{"mesh":0,"translation":[12,18,9]},{"mesh":0,"translation":[18,18,9]},{"mesh":0,"translation":[24,18,9]},{"mesh":0,"translation":[30,18,9]},{"mesh":0,"translation":[36,18,9]},{"mesh":0,"translation":[42,18,9]},{"mesh":0,"translation":[0,24,9]},{"mesh":0,"translation":[6,24,9]},{"mesh":0,"translation":[12,24,9]},{"mesh":0,"translation":[18,24,9]},{"mesh":0,"translation":[24,24,9]},{"mesh":0,"translation":[30,24,9]},{"mesh":0,"translation":[36,24,9]},{"mesh":0,"translation":[6,30,9]},{"mesh":0,"translation":[12,30,9]},{"mesh":0,"translation":[18,30,9]},{"mesh":0,"translation":[24,30,9]},{"mesh":0,"translation":[30,30,9]},{"mesh":0,"translation":[36,30,9]},{"mesh":0,"translation":[42,30,9]},{"mesh":0,"translation":[0,36,9]},{"mesh":0,"translation":[6,36,9]},{"mesh":0,"translation":[12,36,9]},{"mesh":0,"translation":[18,36,9]},{"mesh":0,"translation":[24,36,9]},{"mesh":0,"translation":[30,36,9]},{"mesh":0,"translation":[36,36,9]},{"mesh":0,"translation":[12,42,9]},{"mesh":0,"translation":[24,42,9]},{"mesh":0,"translation":[36,42,9]},{"mesh":0,"translation":[6,0,12]},{"mesh":0,"translation":[18,0,12]},{"mesh":0,"translation":[30,0,12]},{"mesh":1,"translation":[6,6,12]},{"mesh":0,"translation":[12,6,12]},{"mesh":1,"translation":[18,6,12]},{"mesh":0,"translation":[24,6,12]},{"mesh":1,"translation":[30,6,12]},{"mesh":0,"translation":[36,6,12]},{"mesh":1,"translation":[42,6,12]},{"mesh":0,"translation":[0,12,12]},{"mesh":0,"translation":[6,12,12]},{"mesh":0,"translation":[12,12,12]},{"mesh":0,"translation":[18,12,12]},{"mesh":0,"translation":[24,12,12]},{"mesh":0,"translation":[30,12,12]},{"mesh":0,"translation":[36,12,12]},{"mesh":0,"translation":[6,18,12]},{"mesh":0,"translation":[12,18,12]},{"mesh":0,"translation":[18,18,12]},{"mesh":0,"translation":[24,18,12]},{"mesh":0,"translation":[30,18,12]},{"mesh":0,"translation":[36,18,12]},{"mesh":0,"translation":[42,18,12]},{"mesh":0,"translation":[0,24,12]},{"mesh":0,"translation":[6,24,12]},{"mesh":0,"translation":[12,24,12]},{"mesh":0,"translation":[18,24,12]},{"mesh":0,"translation":[24,24,12]},{"mesh":0,"translation":[30,24,12]},{"mesh":0,"translation":[36,24,12]},{"mesh":0,"translation":[6,30,12]},{"mesh":0,"translation":[12,30,12]},{"mesh":0,"translation":[18,30,12]},{"mesh":0,"translation":[24,30,12]},{"mesh":0,"translation":[30,30,12]},{"mesh":0,"translation":[36,30,12]},{"mesh":0,"translation":[42,30,12]},{"mesh":0,"translation":[0,36,12]},{"mesh":0,"translation":[6,36,12]},{"mesh":0,"translation":[12,36,12]},{"mesh":0,"translation":[18,36,12]},{"mesh":0,"translation":[24,36,12]},{"mesh":0,"translation":[30,36,12]},{"mesh":0,"translation":[36,36,12]},{"mesh":0,"translation":[12,42,12]},{"mesh":0,"translation":[24,42,12]},{"mesh":0,"translation":[36,42,12]},{"mesh":0,"translation":[6,0,15]},{"mesh":0,"translation":[18,0,15]},{"mesh":0,"translation":[30,0,15]},{"mesh":1,"translation":[6,6,15]},{"mesh":0,"translation":[12,6,15]},{"mesh":1,"translation":[18,6,15]},{"mesh":0,"translation":[24,6,15]},{"mesh":1,"translation":[30,6,15]},{"mesh":0,"translation":[36,6,15]},{"mesh":1,"translation":[42,6,15]},{"mesh":0,"translation":[0,12,15]},{"mesh":0,"translation":[6,12,15]},{"mesh":0,"translation":[12,12,15]},{"mesh":0,"translation":[18,12,15]},{"mesh":0,"translation":[24,12,15]},{"mesh":0,"translation":[30,12,15]},{"mesh":0,"translation":[36,12,15]},{"mesh":0,"translation":[6,18,15]},{"mesh":0,"translation":[12,18,15]},{"mesh":0,"translation":[18,18,15]},{"mesh":0,"translation":[24,18,15]},{"mesh":0,"translation":[30,18,15]},{"mesh":0,"translation":[36,18,15]},{"mesh":0,"translation":[42,18,15]},{"mesh":0,"translation":[0,24,15]},{"mesh":0,"translation":[6,24,15]},{"mesh":0,"translation":[12,24,15]},{"mesh":0,"translation":[18,24,15]},{"mesh":0,"translation":[24,24,15]},{"mesh":0,"translation":[30,24,15]},{"mesh":0,"translation":[36,24,15]},{"mesh":0,"translation":[6,30,15]},{"mesh":0,"translation":[12,30,15]},{"mesh":0,"translation":[18,30,15]},{"mesh":0,"translation":[24,30,15]},{"mesh":0,"translation":[30,30,15]},{"mesh":0,"translation":[36,30,15]},{"mesh":0,"translation":[42,30,15]},{"mesh":0,"translation":[0,36,15]},{"mesh":0,"translation":[6,36,15]},{"mesh":0,"translation":[12,36,15]},{"mesh":0,"translation":[18,36,15]},{"mesh":0,"translation":[24,36,15]},{"mesh":0,"translation":[30,36,15]},{"mesh":0,"translation":[36,36,15]},{"mesh":0,"translation":[12,42,15]},{"mesh":0,"translation":[24,42,15]},{"mesh":0,"translation":[36,42,15]},{"mesh":0,"translation":[6,0,18]},{"mesh":0,"translation":[18,0,18]},{"mesh":0,"translation":[30,0,18]},{"mesh":1,"translation":[6,6,18]},{"mesh":0,"translation":[12,6,18]},{"mesh":1,"translation":[18,6,18]},{"mesh":0,"translation":[24,6,18]},{"mesh":1,"translation":[30,6,18]},{"mesh":0,"translation":[36,6,18]},{"mesh":1,"translation":[42,6,18]},{"mesh":0,"translation":[0,12,18]},{"mesh":0,"translation":[6,12,18]},{"mesh":0,"translation":[12,12,18]},{"mesh":0,"translation":[18,12,18]},{"mesh":0,"translation":[24,12,18]},{"mesh":0,"translation":[30,12,18]},{"mesh":0,"translation":[36,12,18]},{"mesh":0,"translation":[6,18,18]},{"mesh":0,"translation":[12,18,18]},{"mesh":0,"translation":[18,18,18]},{"mesh":0,"translation":[24,18,18]},{"mesh":0,"translation":[30,18,18]},{"mesh":0,"translation":[36,18,18]},{"mesh":0,"translation":[42,18,18]},{"mesh":0,"translation":[0,24,18]},{"mesh":0,"translation":[6,24,18]},{"mesh":0,"translation":[12,24,18]},{"mesh":0,"translation":[18,24,18]},{"mesh":0,"translation":[24,24,18]},{"mesh":0,"translation":[30,24,18]},{"mesh":0,"translation":[36,24,18]},{"mesh":0,"translation":[6,30,18]},{"mesh":0,"translation":[12,30,18]},{"mesh":0,"translation":[18,30,18]},{"mesh":0,"translation":[24,30,18]},{"mesh":0,"translation":[30,30,18]},{"mesh":0,"translation":[36,30,18]},{"mesh":0,"translation":[42,30,18]},{"mesh":0,"translation":[0,36,18]},{"mesh":0,"translation":[6,36,18]},{"mesh":0,"translation":[12,36,18]},{"mesh":0,"translation":[18,36,18]},{"mesh":0,"translation":[24,36,18]},{"mesh":0,"translation":[30,36,18]},{"mesh":0,"translation":[36,36,18]},{"mesh":0,"translation":[12,42,18]},{"mesh":0,"translation":[24,42,18]},{"mesh":0,"translation":[36,42,18]},{"mesh":0,"translation":[6,0,21]},{"mesh":0,"translation":[18,0,21]},{"mesh":0,"translation":[30,0,21]},{"mesh":1,"translation":[6,6,21]},{"mesh":0,"translation":[12,6,21]},{"mesh":1,"translation":[18,6,21]},{"mesh":0,"translation":[24,6,21]},{"mesh":1,"translation":[30,6,21]},{"mesh":0,"translation":[36,6,21]},{"mesh":1,"translation":[42,6,21]},{"mesh":0,"translation":[0,12,21]},{"mesh":0,"translation":[6,12,21]},{"mesh":0,"translation":[12,12,21]},{"mesh":0,"translation":[18,12,21]},{"mesh":0,"translation":[24,12,21]},{"mesh":0,"translation":[30,12,21]},{"mesh":0,"translation":[36,12,21]},{"mesh":0,"translation":[6,18,21]},{"mesh":0,"translation":[12,18,21]},{"mesh":0,"translation":[18,18,21]},{"mesh":0,"translation":[24,18,21]},{"mesh":0,"translation":[30,18,21]},{"mesh":0,"translation":[36,18,21]},{"mesh":0,"translation":[42,18,21]},{"mesh":0,"translation":[0,24,21]},{"mesh":0,"translation":[6,24,21]},{"mesh":0,"translation":[12,24,21]},{"mesh":0,"translation":[18,24,21]},{"mesh":0,"translation":[24,24,21]},{"mesh":0,"translation":[30,24,21]},{"mesh":0,"translation":[36,24,21]},{"mesh":0,"translation":[6,30,21]},{"mesh":0,"translation":[12,30,21]},{"mesh":0,"translation":[18,30,21]},{"mesh":0,"translation":[24,30,21]},{"mesh":0,"translation":[30,30,21]},{"mesh":0,"translation":[36,30,21]},{"mesh":0,"translation":[42,30,21]},{"mesh":0,"translation":[0,36,21]},{"mesh":0,"translation":[6,36,21]},{"mesh":0,"translation":[12,36,21]},{"mesh":0,"translation":[18,36,21]},{"mesh":0,"translation":[24,36,21]},{"mesh":0,"translation":[30,36,21]},{"mesh":0,"translation":[36,36,21]},{"mesh":0,"translation":[12,42,21]},{"mesh":0,"translation":[24,42,21]},{"mesh":0,"translation":[36,42,21]},{"mesh":0,"translation":[6,0,24]},{"mesh":0,"translation":[18,0,24]},{"mesh":0,"translation":[30,0,24]},{"mesh":1,"translation":[6,6,24]},{"mesh":0,"translation":[12,6,24]},{"mesh":1,"translation":[18,6,24]},{"mesh":0,"translation":[24,6,24]},{"mesh":1,"translation":[30,6,24]},{"mesh":0,"translation":[36,6,24]},{"mesh":1,"translation":[42,6,24]},{"mesh":0,"translation":[0,12,24]},{"mesh":0,"translation":[6,12,24]},{"mesh":0,"translation":[12,12,24]},{"mesh":0,"translation":[18,12,24]},{"mesh":0,"translation":[24,12,24]},{"mesh":0,"translation":[30,12,24]},{"mesh":0,"translation":[36,12,24]},{"mesh":0,"translation":[6,18,24]},{"mesh":0,"translation":[12,18,24]},{"mesh":0,"translation":[18,18,24]},{"mesh":0,"translation":[24,18,24]},{"mesh":0,"translation":[30,18,24]},{"mesh":0,"translation":[36,18,24]},{"mesh":0,"translation":[42,18,24]},{"mesh":0,"translation":[0,24,24]},{"mesh":0,"translation":[6,24,24]},{"mesh":0,"translation":[12,24,24]},{"mesh":0,"translation":[18,24,24]},{"mesh":0,"translation":[24,24,24]},{"mesh":0,"translation":[30,24,24]},{"mesh":0,"translation":[36,24,24]},{"mesh":0,"translation":[6,30,24]},{"mesh":0,"translation":[12,30,24]},{"mesh":0,"translation":[18,30,24]},{"mesh":0,"translation":[24,30,24]},{"mesh":0,"translation":[30,30,24]},{"mesh":0,"translation":[36,30,24]},{"mesh":0,"translation":[42,30,24]},{"mesh":0,"translation":[0,36,24]},{"mesh":0,"translation":[6,36,24]},{"mesh":0,"translation":[12,36,24]},{"mesh":0,"translation":[18,36,24]},{"mesh":0,"translation":[24,36,24]},{"mesh":0,"translation":[30,36,24]},{"mesh":0,"translation":[36,36,24]},{"mesh":0,"translation":[12,42,24]},{"mesh":0,"translation":[24,42,24]},{"mesh":0,"translation":[36,42,24]},{"mesh":0,"translation":[6,0,27]},{"mesh":0,"translation":[18,0,27]},{"mesh":0,"translation":[30,0,27]},{"mesh":1,"translation":[6,6,27]},{"mesh":0,"translation":[12,6,27]},{"mesh":1,"translation":[18,6,27]},{"mesh":0,"translation":[24,6,27]},{"mesh":1,"translation":[30,6,27]},{"mesh":0,"translation":[36,6,27]},{"mesh":1,"translation":[42,6,27]},{"mesh":0,"translation":[0,12,27]},{"mesh":0,"translation":[6,12,27]},{"mesh":0,"translation":[12,12,27]},{"mesh":0,"translation":[18,12,27]},{"mesh":0,"translation":[24,12,27]},{"mesh":0,"translation":[30,12,27]},{"mesh":0,"translation":[36,12,27]},{"mesh":0,"translation":[6,18,27]},{"mesh":0,"translation":[12,18,27]},{"mesh":0,"translation":[18,18,27]},{"mesh":0,"translation":[24,18,27]},{"mesh":0,"translation":[30,18,27]},{"mesh":0,"translation":[36,18,27]},{"mesh":0,"translation":[42,18,27]},{"mesh":0,"translation":[0,24,27]},{"mesh":0,"translation":[6,24,27]},{"mesh":0,"translation":[12,24,27]},{"mesh":0,"translation":[18,24,27]},{"mesh":0,"translation":[24,24,27]},{"mesh":0,"translation":[30,24,27]},{"mesh":0,"translation":[36,24,27]},{"mesh":0,"translation":[6,30,27]},{"mesh":0,"translation":[12,30,27]},{"mesh":0,"translation":[18,30,27]},{"mesh":0,"translation":[24,30,27]},{"mesh":0,"translation":[30,30,27]},{"mesh":0,"translation":[36,30,27]},{"mesh":0,"translation":[42,30,27]},{"mesh":0,"translation":[0,36,27]},{"mesh":0,"translation":[6,36,27]},{"mesh":0,"translation":[12,36,27]},{"mesh":0,"translation":[18,36,27]},{"mesh":0,"translation":[24,36,27]},{"mesh":0,"translation":[30,36,27]},{"mesh":0,"translation":[36,36,27]},{"mesh":0,"translation":[12,42,27]},{"mesh":0,"translation":[24,42,27]},{"mesh":0,"translation":[36,42,27]},{"mesh":0,"translation":[0,12,30]},{"mesh":0,"translation":[0,24,30]},{"mesh":0,"translation":[0,36,30]},{"mesh":1,"translation":[6,6,30]},{"mesh":0,"translation":[6,18,30]},{"mesh":0,"translation":[6,30,30]},{"mesh":0,"translation":[12,12,30]},{"mesh":0,"translation":[12,24,30]},{"mesh":0,"translation":[12,36,30]},{"mesh":1,"translation":[18,6,30]},{"mesh":0,"translation":[18,18,30]},{"mesh":0,"translation":[18,30,30]},{"mesh":0,"translation":[24,12,30]},{"mesh":0,"translation":[24,24,30]},{"mesh":0,"translation":[24,36,30]},{"mesh":1,"translation":[30,6,30]},{"mesh":0,"translation":[30,18,30]},{"mesh":0,"translation":[30,30,30]},{"mesh":0,"translation":[36,12,30]},{"mesh":0,"translation":[36,24,30]},{"mesh":0,"translation":[36,36,30]},{"mesh":1,"translation":[42,6,30]},{"mesh":0,"translation":[42,18,30]},{"mesh":0,"translation":[42,30,30]},{"mesh":2,"translation":[0,0,0]},{"mesh":3,"translation":[0,0,0]}],"scene":0,"scenes":[{"nodes":[0,1,2,3,4,5,6,7,8,9,10,11,12,13,14,15,16,17,18,19,20,21,22,23,24,25,26,27,28,29,30,31,32,33,34,35,36,37,38,39,40,41,42,43,44,45,46,47,48,49,50,51,52,53,54,55,56,57,58,59,60,61,62,63,64,65,66,67,68,69,70,71,72,73,74,75,76,77,78,79,80,81,82,83,84,85,86,87,88,89,90,91,92,93,94,95,96,97,98,99,100,101,102,103,104,105,106,107,108,109,110,111,112,113,114,115,116,117,118,119,120,121,122,123,124,125,126,127,128,129,130,131,132,133,134,135,136,137,138,139,140,141,142,143,144,145,146,147,148,149,150,151,152,153,154,155,156,157,158,159,160,161,162,163,164,165,166,167,168,169,170,171,172,173,174,175,176,177,178,179,180,181,182,183,184,185,186,187,188,189,190,191,192,193,194,195,196,197,198,199,200,201,202,203,204,205,206,207,208,209,210,211,212,213,214,215,216,217,218,219,220,221,222,223,224,225,226,227,228,229,230,231,232,233,234,235,236,237,238,239,240,241,242,243,244,245,246,247,248,249,250,251,252,253,254,255,256,257,258,259,260,261,262,263,264,265,266,267,268,269,270,271,272,273,274,275,276,277,278,279,280,281,282,283,284,285,286,287,288,289,290,291,292,293,294,295,296,297,298,299,300,301,302,303,304,305,306,307,308,309,310,311,312,313,314,315,316,317,318,319,320,321,322,323,324,325,326,327,328,329,330,331,332,333,334,335,336,337,338,339,340,341,342,343,344,345,346,347,348,349,350,351,352,353,354,355,356,357,358,359,360,361,362,363,364,365,366,367,368,369,370,371,372,373,374,375,376,377,378,379,380,381,382,383,384,385,386,387,388,389,390,391,392,393,394,395,396,397,398,399,400,401,402,403,404,405,406,407,408,409,410,411,412,413,414,415,416,417,418,419,420,421,422,423,424,425,426,427,428,429,430,431,432,433,434,435,436,437,438,439,440,441,442,443,444,445,446,447,448,449,450,451,452,453,454,455,456,457,458,459,460,461,462,463,464,465,466,467,468,469,470,471,472,473,474,475,476,477,478,479,480,481]}]}
