<svg viewBox="0 0 194.929 107.633"  version="1.1" xmlns="http://www.w3.org/2000/svg">
<path d="M52.1645,68.6667 L5,84.1279 M52.1645,68.6667 L82.1645,38.6667 M52.1645,68.6667 L52.7645,68.9667 M82.1645,38.6667 L112.164,68.6667 M82.1645,38.6667 L52.7645,68.9667 M82.1645,38.6667 L82.7645,38.9667 M112.164,68.6667 L144.831,101.667 M112.164,68.6667 L142.164,38.6667 M112.164,68.6667 L52.7645,68.9667 M112.164,68.6667 L82.7645,38.9667 M112.164,68.6667 L112.764,68.9667 M142.164,38.6667 L82.7645,38.9667 M142.164,38.6667 L112.764,68.9667 M142.164,38.6667 L142.764,38.9667 M52.7645,68.9667 L6.22469,84.7402 M52.7645,68.9667 L82.7645,38.9667 M52.7645,68.9667 L6.22469,84.7402 M52.1645,68.6667 L5,84.1279 M52.7645,68.9667 L6.22469,84.7402 M112.164,68.6667 L144.831,101.667 M82.7645,38.9667 L112.764,68.9667 M112.764,68.9667 L146.764,102.633 M112.764,68.9667 L142.764,38.9667 M112.764,68.9667 L146.764,102.633 M112.164,68.6667 L144.831,101.667" stroke="black" fill="none" stroke-width="0.2"/>
<path d="M82.1645,38.6667 L48.1645,5 M142.164,38.6667 L188.704,22.8931 M82.7645,38.9667 L50.0978,5.96667 M82.7645,38.9667 L50.0978,5.96667 M82.1645,38.6667 L48.1645,5 M82.7645,38.9667 L50.0978,5.96667 M142.164,38.6667 L188.704,22.8931 M142.764,38.9667 L189.929,23.5055 M142.764,38.9667 L189.929,23.5055 M142.164,38.6667 L188.704,22.8931" stroke="red" fill="none" stroke-width="0.2"/>
<circle cx="52.1645" cy="68.6667" r="0.5" stroke="none" fill="black"/>
<circle cx="82.1645" cy="38.6667" r="0.5" stroke="none" fill="black"/>
<circle cx="112.164" cy="68.6667" r="0.5" stroke="none" fill="black"/>
<circle cx="142.164" cy="38.6667" r="0.5" stroke="none" fill="black"/>
<circle cx="52.7645" cy="68.9667" r="0.5" stroke="none" fill="black"/>
<circle cx="82.7645" cy="38.9667" r="0.5" stroke="none" fill="black"/>
<circle cx="112.764" cy="68.9667" r="0.5" stroke="none" fill="black"/>
<circle cx="142.764" cy="38.9667" r="0.5" stroke="none" fill="black"/>
</svg>
