{"accessors":[{"bufferView":0,"byteOffset":0,"componentType":5126,"count":9,"max":[0,0.400000005960464,0.400000005960464],"min":[0,-0.400000005960464,-0.400000005960464],"name":"circle_loop","type":"VEC3"},{"bufferView":1,"byteOffset":0,"componentType":5126,"count":9,"max":[0.400000005960464,0,0.400000005960464],"min":[-0.400000005960464,0,-0.400000005960464],"name":"circle_loop","type":"VEC3"},{"bufferView":2,"byteOffset":0,"componentType":5126,"count":9,"max":[0.400000005960464,0.400000005960464,0],"min":[-0.400000005960464,-0.400000005960464,0],"name":"circle_loop","type":"VEC3"},{"bufferView":3,"byteOffset":0,"componentType":5126,"count":9,"max":[0,0.400000005960464,0.400000005960464],"min":[0,-0.400000005960464,-0.400000005960464],"name":"circle_loop","type":"VEC3"},{"bufferView":4,"byteOffset":0,"componentType":5126,"count":9,"max":[0.400000005960464,0,0.400000005960464],"min":[-0.400000005960464,0,-0.400000005960464],"name":"circle_loop","type":"VEC3"},{"bufferView":5,"byteOffset":0,"componentType":5126,"count":9,"max":[0.400000005960464,0.400000005960464,0],"min":[-0.400000005960464,-0.400000005960464,0],"name":"circle_loop","type":"VEC3"},{"bufferView":6,"byteOffset":0,"componentType":5126,"count":1904,"max":[18.6666679382324,27.3704261779785,23.7038822174072],"min":[-9.3704252243042,-9.3704252243042,-8.70388221740723],"name":"buf_scattered_lines","type":"VEC3"},{"bufferView":7,"byteOffset":0,"componentType":5126,"count":344,"max":[27.3704261779785,6,23.7038822174072],"min":[-0.666666984558105,-0.666666984558105,-8.70388221740723],"name":"buf_red_scattered_lines","type":"VEC3"}],"asset":{"version":"2.0"},"bufferViews":[{"buffer":0,"byteLength":108,"byteOffset":0,"name":"circle_loop","target":34962},{"buffer":1,"byteLength":108,"byteOffset":0,"name":"circle_loop","target":34962},{"buffer":2,"byteLength":108,"byteOffset":0,"name":"circle_loop","target":34962},{"buffer":3,"byteLength":108,"byteOffset":0,"name":"circle_loop","target":34962},{"buffer":4,"byteLength":108,"byteOffset":0,"name":"circle_loop","target":34962},{"buffer":5,"byteLength":108,"byteOffset":0,"name":"circle_loop","target":34962},{"buffer":6,"byteLength":22848,"byteOffset":0,"name":"buf_scattered_lines","target":34962},{"buffer":7,"byteLength":4128,"byteOffset":0,"name":"buf_red_scattered_lines","target":34962}],"buffers":[{"byteLength":108,"name":"circle_loop","uri":"data:application/octet-stream;base64,"},{"byteLength":108,"name":"circle_loop","uri":"data:application/octet-stream;base64,"},{"byteLength":108,"name":"circle_loop","uri":"data:application/octet-stream;base64,"},{"byteLength":108,"name":"circle_loop","uri":"data:application/octet-stream;base64,"},{"byteLength":108,"name":"circle_loop","uri":"data:application/octet-stream;base64,"},{"byteLength":108,"name":"circle_loop","uri":"data:application/octet-stream;base64,"},{"byteLength":22848,"name":"buf_scattered_lines","uri":"data:application/octet-stream;base64,"},{"byteLength":4128,"name":"buf_red_scattered_lines","uri":"data:application/octet-stream;base64,"}],"materials":[{"doubleSided":true,"pbrMetallicRoughness":{"baseColorFactor":[0,0,0,1],"metallicFactor":1,"roughnessFactor":1}},{"doubleSided":true,"pbrMetallicRoughness":{"baseColorFactor":[1,0.5,0.5,1],"metallicFactor":1,"roughnessFactor":1}},{"doubleSided":true,"pbrMetallicRoughness":{"baseColorFactor":[0,0,0,1],"metallicFactor":1,"roughnessFactor":1}},{"doubleSided":true,"pbrMetallicRoughness":{"baseColorFactor":[1,0,0,1],"metallicFactor":1,"roughnessFactor":1}}],"meshes":[{"primitives":[{"attributes":{"POSITION":0},"material":0,"mode":6},{"attributes":{"POSITION":1},"material":0,"mode":6},{"attributes":{"POSITION":2},"material":0,"mode":6}]},{"primitives":[{"attributes":{"POSITION":3},"material":1,"mode":6},{"attributes":{"POSITION":4},"material":1,"mode":6},{"attributes":{"POSITION":5},"material":1,"mode":6}]},{"primitives":[{"attributes":{"POSITION":6},"material":2,"mode":1}]},{"primitives":[{"attributes":{"POSITION":7},"material":3,"mode":1}]}],"nodes":[{"mesh":0,"translation":[0,12,0]},{"mesh":1,"translation":[6,6,0]},{"mesh":0,"translation":[12,12,0]},{"mesh":1,"translation":[18,6,0]},{"mesh":0,"translation":[6,0,3]},{"mesh":1,"translation":[6,6,3]},{"mesh":0,"translation":[12,6,3]},{"mesh":1,"translation":[18,6,3]},{"mesh":0,"translation":[0,12,3]},{"mesh":0,"translation":[6,12,3]},{"mesh":0,"translation":[12,12,3]},{"mesh":0,"translation":[12,18,3]},{"mesh":0,"translation":[6,0,6]},{"mesh":1,"translation":[6,6,6]},{"mesh":0,"translation":[12,6,6]},{"mesh":1,"translation":[18,6,6]},{"mesh":0,"translation":[0,12,6]},{"mesh":0,"translation":[6,12,6]},{"mesh":0,"translation":[12,12,6]},{"mesh":0,"translation":[12,18,6]},{"mesh":0,"translation":[6,0,9]},{"mesh":1,"translation":[6,6,9]},{"mesh":0,"translation":[12,6,9]},{"mesh":1,"translation":[18,6,9]},{"mesh":0,"translation":[0,12,9]},{"mesh":0,"translation":[6,12,9]},{"mesh":0,"translation":[12,12,9]},{"mesh":0,"translation":[12,18,9]},{"mesh":0,"translation":[6,0,12]},{"mesh":1,"translation":[6,6,12]},{"mesh":0,"translation":[12,6,12]},{"mesh":1,"translation":[18,6,12]},{"mesh":0,"translation":[0,12,12]},{"mesh":0,"translation":[6,12,12]},{"mesh":0,"translation":[12,12,12]},{"mesh":0,"translation":[12,18,12]},{"mesh":0,"translation":[0,12,15]},{"mesh":1,"translation":[6,6,15]},{"mesh":0,"translation":[12,12,15]},{"mesh":1,"translation":[18,6,15]},{"mesh":2,"translation":[0,0,0]},{"mesh":3,"translation":[0,0,0]}],"scene":0,"scenes":[{"nodes":[0,1,2,3,4,5,6,7,8,9,10,11,12,13,14,15,16,17,18,19,20,21,22,23,24,25,26,27,28,29,30,31,32,33,34,35,36,37,38,39,40,41]}]}
