{"accessors":[{"bufferView":0,"byteOffset":0,"componentType":5126,"count":9,"max":[0,0.400000005960464,0.400000005960464],"min":[0,-0.400000005960464,-0.400000005960464],"name":"circle_loop","type":"VEC3"},{"bufferView":1,"byteOffset":0,"componentType":5126,"count":9,"max":[0.400000005960464,0,0.400000005960464],"min":[-0.400000005960464,0,-0.400000005960464],"name":"circle_loop","type":"VEC3"},{"bufferView":2,"byteOffset":0,"componentType":5126,"count":9,"max":[0.400000005960464,0.400000005960464,0],"min":[-0.400000005960464,-0.400000005960464,0],"name":"circle_loop","type":"VEC3"},{"bufferView":3,"byteOffset":0,"componentType":5126,"count":9,"max":[0,0.400000005960464,0.400000005960464],"min":[0,-0.400000005960464,-0.400000005960464],"name":"circle_loop","type":"VEC3"},{"bufferView":4,"byteOffset":0,"componentType":5126,"count":9,"max":[0.400000005960464,0,0.400000005960464],"min":[-0.400000005960464,0,-0.400000005960464],"name":"circle_loop","type":"VEC3"},{"bufferView":5,"byteOffset":0,"componentType":5126,"count":9,"max":[0.400000005960464,0.400000005960464,0],"min":[-0.400000005960464,-0.400000005960464,0],"name":"circle_loop","type":"VEC3"},{"bufferView":6,"byteOffset":0,"componentType":5126,"count":4588,"max":[19.0710678100586,27.4868335723877,39.6225051879883],"min":[-9.4868335723877,-9.4868335723877,-9.62250518798828],"name":"buf_scattered_lines","type":"VEC3"},{"bufferView":7,"byteOffset":0,"componentType":5126,"count":804,"max":[27.4868335723877,6,39.6225051879883],"min":[-1.07106828689575,-1.07106828689575,-9.62250518798828],"name":"buf_red_scattered_lines","type":"VEC3"}],"asset":{"version":"2.0"},"bufferViews":[{"buffer":0,"byteLength":108,"byteOffset":0,"name":"circle_loop","target":34962},{"buffer":1,"byteLength":108,"byteOffset":0,"name":"circle_loop","target":34962},{"buffer":2,"byteLength":108,"byteOffset":0,"name":"circle_loop","target":34962},{"buffer":3,"byteLength":108,"byteOffset":0,"name":"circle_loop","target":34962},{"buffer":4,"byteLength":108,"byteOffset":0,"name":"circle_loop","target":34962},{"buffer":5,"byteLength":108,"byteOffset":0,"name":"circle_loop","target":34962},{"buffer":6,"byteLength":55056,"byteOffset":0,"name":"buf_scattered_lines","target":34962},{"buffer":7,"byteLength":9648,"byteOffset":0,"name":"buf_red_scattered_lines","target":34962}],"buffers":[{"byteLength":108,"name":"circle_loop","uri":"data:application/octet-stream;base64,"},{"byteLength":108,"name":"circle_loop","uri":"data:application/octet-stream;base64,"},{"byteLength":108,"name":"circle_loop","uri":"data:application/octet-stream;base64,"},{"byteLength":108,"name":"circle_loop","uri":"data:application/octet-stream;base64,"},{"byteLength":108,"name":"circle_loop","uri":"data:application/octet-stream;base64,"},{"byteLength":108,"name":"circle_loop","uri":"data:application/octet-stream;base64,"},{"byteLength":55056,"name":"buf_scattered_lines","uri":"data:application/octet-stream;base64,"},{"byteLength":9648,"name":"buf_red_scattered_lines","uri":"data:application/octet-stream;base64,"}],"materials":[{"doubleSided":true,"pbrMetallicRoughness":{"baseColorFactor":[0,0,0,1],"metallicFactor":1,"roughnessFactor":1}},{"doubleSided":true,"pbrMetallicRoughness":{"baseColorFactor":[1,0.5,0.5,1],"metallicFactor":1,"roughnessFactor":1}},{"doubleSided":true,"pbrMetallicRoughness":{"baseColorFactor":[0,0,0,1],"metallicFactor":1,"roughnessFactor":1}},{"doubleSided":true,"pbrMetallicRoughness":{"baseColorFactor":[1,0,0,1],"metallicFactor":1,"roughnessFactor":1}}],"meshes":[{"primitives":[{"attributes":{"POSITION":0},"material":0,"mode":6},{"attributes":{"POSITION":1},"material":0,"mode":6},{"attributes":{"POSITION":2},"material":0,"mode":6}]},{"primitives":[{"attributes":{"POSITION":3},"material":1,"mode":6},{"attributes":{"POSITION":4},"material":1,"mode":6},{"attributes":{"POSITION":5},"material":1,"mode":6}]},{"primitives":[{"attributes":{"POSITION":6},"material":2,"mode":1}]},{"primitives":[{"attributes":{"POSITION":7},"material":3,"mode":1}]}],"nodes":[{"mesh":0,"translation":[0,12,0]},{"mesh":1,"translation":[6,6,0]},{"mesh":0,"translation":[12,12,0]},{"mesh":1,"translation":[18,6,0]},{"mesh":0,"translation":[6,0,3]},{"mesh":1,"translation":[6,6,3]},{"mesh":0,"translation":[12,6,3]},{"mesh":1,"translation":[18,6,3]},{"mesh":0,"translation":[0,12,3]},{"mesh":0,"translation":[6,12,3]},{"mesh":0,"translation":[12,12,3]},{"mesh":0,"translation":[12,18,3]},{"mesh":0,"translation":[6,0,6]},{"mesh":1,"translation":[6,6,6]},{"mesh":0,"translation":[12,6,6]},{"mesh":1,"translation":[18,6,6]},{"mesh":0,"translation":[0,12,6]},{"mesh":0,"translation":[6,12,6]},{"mesh":0,"translation":[12,12,6]},{"mesh":0,"translation":[12,18,6]},{"mesh":0,"translation":[6,0,9]},{"mesh":1,"translation":[6,6,9]},{"mesh":0,"translation":[12,6,9]},{"mesh":1,"translation":[18,6,9]},{"mesh":0,"translation":[0,12,9]},{"mesh":0,"translation":[6,12,9]},{"mesh":0,"translation":[12,12,9]},{"mesh":0,"translation":[12,18,9]},{"mesh":0,"translation":[6,0,12]},{"mesh":1,"translation":[6,6,12]},{"mesh":0,"translation":[12,6,12]},{"mesh":1,"translation":[18,6,12]},{"mesh":0,"translation":[0,12,12]},{"mesh":0,"translation":[6,12,12]},{"mesh":0,"translation":[12,12,12]},{"mesh":0,"translation":[12,18,12]},{"mesh":0,"translation":[6,0,15]},{"mesh":1,"translation":[6,6,15]},{"mesh":0,"translation":[12,6,15]},{"mesh":1,"translation":[18,6,15]},{"mesh":0,"translation":[0,12,15]},{"mesh":0,"translation":[6,12,15]},{"mesh":0,"translation":[12,12,15]},{"mesh":0,"translation":[12,18,15]},{"mesh":0,"translation":[6,0,18]},{"mesh":1,"translation":[6,6,18]},{"mesh":0,"translation":[12,6,18]},{"mesh":1,"translation":[18,6,18]},{"mesh":0,"translation":[0,12,18]},{"mesh":0,"translation":[6,12,18]},{"mesh":0,"translation":[12,12,18]},{"mesh":0,"translation":[12,18,18]},{"mesh":0,"translation":[6,0,21]},{"mesh":1,"translation":[6,6,21]},{"mesh":0,"translation":[12,6,21]},{"mesh":1,"translation":[18,6,21]},{"mesh":0,"translation":[0,12,21]},{"mesh":0,"translation":[6,12,21]},{"mesh":0,"translation":[12,12,21]},{"mesh":0,"translation":[12,18,21]},{"mesh":0,"translation":[6,0,24]},{"mesh":1,"translation":[6,6,24]},{"mesh":0,"translation":[12,6,24]},{"mesh":1,"translation":[18,6,24]},{"mesh":0,"translation":[0,12,24]},{"mesh":0,"translation":[6,12,24]},{"mesh":0,"translation":[12,12,24]},{"mesh":0,"translation":[12,18,24]},{"mesh":0,"translation":[6,0,27]},{"mesh":1,"translation":[6,6,27]},{"mesh":0,"translation":[12,6,27]},{"mesh":1,"translation":[18,6,27]},{"mesh":0,"translation":[0,12,27]},{"mesh":0,"translation":[6,12,27]},{"mesh":0,"translation":[12,12,27]},{"mesh":0,"translation":[12,18,27]},{"mesh":0,"translation":[0,12,30]},{"mesh":1,"translation":[6,6,30]},{"mesh":0,"translation":[12,12,30]},{"mesh":1,"translation":[18,6,30]},{"mesh":2,"translation":[0,0,0]},{"mesh":3,"translation":[0,0,0]}],"scene":0,"scenes":[{"nodes":[0,1,2,3,4,5,6,7,8,9,10,11,12,13,14,15,16,17,18,19,20,21,22,23,24,25,26,27,28,29,30,31,32,33,34,35,36,37,38,39,40,41,42,43,44,45,46,47,48,49,50,51,52,53,54,55,56,57,58,59,60,61,62,63,64,65,66,67,68,69,70,71,72,73,74,75,76,77,78,79,80,81]}]}
